<?xml version="1.0" encoding="utf-8"?>
<!-- Generator: Adobe Illustrator 22.0.0, SVG Export Plug-In . SVG Version: 6.00 Build 0)  -->
<svg version="1.1" id="Layer_1" xmlns="http://www.w3.org/2000/svg" xmlns:xlink="http://www.w3.org/1999/xlink" x="0px" y="0px"
	 viewBox="0 0 696 459.9" style="enable-background:new 0 0 696 459.9;" xml:space="preserve">
<style type="text/css">
	.st0{opacity:0.2;}
	.st1{fill:url(#SVGID_1_);}
	.st2{fill:#0E2D6B;}
	.st3{fill:#819AF8;}
	.st4{fill:url(#SVGID_2_);}
	.st5{fill:#ABBDF4;}
	.st6{fill:url(#SVGID_3_);}
	.st7{fill:url(#SVGID_4_);}
	.st8{fill:url(#SVGID_5_);}
	.st9{fill:url(#SVGID_6_);}
	.st10{fill:url(#SVGID_7_);}
	.st11{fill:url(#SVGID_8_);}
	.st12{fill:none;stroke:#000000;stroke-miterlimit:10;}
	.st13{fill:url(#SVGID_9_);}
	.st14{fill:url(#SVGID_10_);}
	.st15{fill:#94A9DD;}
	.st16{fill:url(#SVGID_11_);}
	.st17{fill:url(#SVGID_12_);}
	.st18{fill:url(#SVGID_13_);}
	.st19{fill:url(#SVGID_14_);}
	.st20{fill:#2B54A5;}
	.st21{fill:url(#SVGID_15_);}
	.st22{fill:url(#SVGID_16_);}
	.st23{fill:url(#SVGID_17_);}
	.st24{fill:url(#SVGID_18_);}
	.st25{fill:#3572C9;}
	.st26{fill:url(#SVGID_19_);}
	.st27{fill:#1D4E9E;}
</style>
<g id="house-illustration">
	<polygon id="shadow_17_" class="st0" points="563,451.9 696,451.9 696,215.9 600,99.9 501,137.9 491,262.9 	"/>
	<linearGradient id="SVGID_1_" gradientUnits="userSpaceOnUse" x1="226.5971" y1="268.239" x2="470.8686" y2="268.239">
		<stop  offset="0" style="stop-color:#88A4FF"/>
		<stop  offset="1" style="stop-color:#5E80EF"/>
	</linearGradient>
	<polygon class="st1" points="226.6,452.3 470.9,443.2 470.9,144.9 226.6,84.2 	"/>
	<polygon class="st2" points="10.8,211.2 5.4,214.6 1.4,214.1 6.7,210.7 	"/>
	<polygon class="st3" points="191.5,125.7 188.4,127.4 188.4,192.3 191.5,191 	"/>
	<linearGradient id="SVGID_2_" gradientUnits="userSpaceOnUse" x1="158.6493" y1="450.745" x2="-10.8279" y2="434.1297">
		<stop  offset="0" style="stop-color:#85ACF9"/>
		<stop  offset="1" style="stop-color:#104CC4"/>
	</linearGradient>
	<polygon class="st4" points="3.6,433.1 147.4,446.5 147.4,452.8 3.6,437.3 	"/>
	<polygon class="st5" points="270.9,457.5 213.8,459.9 213.8,452.7 270.9,450.6 	"/>
	<polygon class="st5" points="226.6,122.7 213.8,119.9 213.8,452.7 226.6,452.3 	"/>
	<linearGradient id="SVGID_3_" gradientUnits="userSpaceOnUse" x1="255.9376" y1="78.0157" x2="628.9291" y2="100.7964">
		<stop  offset="0" style="stop-color:#285FCE"/>
		<stop  offset="1" style="stop-color:#122E5B"/>
	</linearGradient>
	<polygon class="st6" points="597,119.1 567.8,110.1 567.8,110.1 300.2,27 213.8,81 470.9,144.9 537,122.7 562.6,130 	"/>
	<linearGradient id="SVGID_4_" gradientUnits="userSpaceOnUse" x1="292.6745" y1="13.8293" x2="609.8499" y2="114.3043">
		<stop  offset="0" style="stop-color:#7CA0E8"/>
		<stop  offset="1" style="stop-color:#285FCE"/>
	</linearGradient>
	<polygon class="st7" points="567.8,93.3 567.8,93.3 300.2,5.4 300.2,27 567.8,110.1 567.8,110.1 597,119.1 597,102.9 	"/>
	<linearGradient id="SVGID_5_" gradientUnits="userSpaceOnUse" x1="209.5581" y1="126.0106" x2="312.0412" y2="72.0625">
		<stop  offset="0" style="stop-color:#7CA0E8"/>
		<stop  offset="1" style="stop-color:#2773E2"/>
	</linearGradient>
	<polygon class="st8" points="300.2,83.5 226.6,122.7 213.8,119.9 286.4,79.9 	"/>
	<polygon class="st2" points="98.9,142.4 85.1,139.9 85.1,151.5 98.9,153.9 	"/>
	<linearGradient id="SVGID_6_" gradientUnits="userSpaceOnUse" x1="-72.4698" y1="355.5356" x2="180.1591" y2="261.2925">
		<stop  offset="0" style="stop-color:#7CA0E8"/>
		<stop  offset="1" style="stop-color:#C1D3F4"/>
	</linearGradient>
	<polygon class="st9" points="85.1,147.7 85.1,139.9 0,198 0,204.1 1.4,203.2 1.4,214.1 3.6,212.6 3.6,437.3 213.8,459.9 
		213.8,119.9 286.4,79.9 286.4,67.5 286.4,35.6 300.2,27 300.2,5.4 	"/>
	<linearGradient id="SVGID_7_" gradientUnits="userSpaceOnUse" x1="167.736" y1="-38.2994" x2="597.4517" y2="99.0296">
		<stop  offset="0" style="stop-color:#7CA0E8"/>
		<stop  offset="1" style="stop-color:#2B54A5"/>
	</linearGradient>
	<polygon class="st10" points="600,99.8 300.2,0 300.2,5.4 600,103.9 	"/>
	<linearGradient id="SVGID_8_" gradientUnits="userSpaceOnUse" x1="-5.2612" y1="204.8621" x2="280.9167" y2="15.4609">
		<stop  offset="0" style="stop-color:#7CA0E8"/>
		<stop  offset="1" style="stop-color:#C1D3F4"/>
	</linearGradient>
	<polygon class="st11" points="0,204.1 300.2,5.4 300.2,0 0,201.4 	"/>
	<polygon class="st12" points="101.3,364.9 85.4,366.4 85.4,255.1 101.3,249 	"/>
	<linearGradient id="SVGID_9_" gradientUnits="userSpaceOnUse" x1="191.0616" y1="341.6118" x2="162.2168" y2="341.7887">
		<stop  offset="0" style="stop-color:#F0F4FF"/>
		<stop  offset="1" style="stop-color:#D5DDEF"/>
	</linearGradient>
	<polygon class="st13" points="181.9,454.7 159.3,452.3 159.3,236.8 181.9,228.7 	"/>
	<polygon class="st5" points="537,452.7 470.9,448.9 470.9,443.2 537,446.5 	"/>
	<polygon class="st5" points="531.4,124.6 531.4,446.2 537,446.5 537,122.7 	"/>
	<linearGradient id="SVGID_10_" gradientUnits="userSpaceOnUse" x1="541.4836" y1="287.5296" x2="586.2425" y2="285.6168">
		<stop  offset="0" style="stop-color:#285FCE"/>
		<stop  offset="1" style="stop-color:#122E5B"/>
	</linearGradient>
	<polygon class="st14" points="562.6,130 537,122.7 537,452.7 562.6,451.5 	"/>
	<polygon class="st15" points="421,445 421,445 418.6,445.1 418.6,451.2 421,451.1 421,451.1 470.9,448.9 470.9,443.2 	"/>
	<linearGradient id="SVGID_11_" gradientUnits="userSpaceOnUse" x1="265.583" y1="334.0522" x2="342.974" y2="337.1635">
		<stop  offset="0" style="stop-color:#6078C4"/>
		<stop  offset="1" style="stop-color:#476EEA"/>
	</linearGradient>
	<polygon class="st16" points="350.1,223.4 270.9,211.1 270.9,457.5 350.1,454.1 	"/>
	<linearGradient id="SVGID_12_" gradientUnits="userSpaceOnUse" x1="279.4748" y1="335.4054" x2="341.5289" y2="332.7307">
		<stop  offset="0" style="stop-color:#FDFDFF"/>
		<stop  offset="1" style="stop-color:#D5DDEF"/>
	</linearGradient>
	<polygon class="st17" points="343.4,235.4 282.7,226.6 282.7,443.2 343.4,441.3 	"/>
	<linearGradient id="SVGID_13_" gradientUnits="userSpaceOnUse" x1="411.4874" y1="343.0454" x2="353.5066" y2="338.9686">
		<stop  offset="0" style="stop-color:#3D5EC4"/>
		<stop  offset="1" style="stop-color:#476EEA"/>
	</linearGradient>
	<polygon class="st18" points="419.9,234.2 350.2,223.4 350.2,454.1 419.9,451.1 	"/>
	<linearGradient id="SVGID_14_" gradientUnits="userSpaceOnUse" x1="338.9608" y1="338.5253" x2="395.3046" y2="340.5496">
		<stop  offset="0" style="stop-color:#FDFDFF"/>
		<stop  offset="1" style="stop-color:#D5DDEF"/>
	</linearGradient>
	<polygon class="st19" points="414,245.6 360.5,237.9 360.5,440.7 414,439.1 	"/>
	<polygon class="st20" points="147.1,153.9 142.8,153.1 142.8,208.4 147.1,206.5 	"/>
	<polygon class="st2" points="183.7,130 142.8,153.1 147.2,153.9 188.4,131 188.4,127.4 	"/>
	<polygon class="st20" points="159.3,236.8 147.4,235.4 147.4,452.8 159.3,452.3 	"/>
	<polygon class="st3" points="191.5,191 141.5,212.6 141.5,208.9 191.5,186.9 	"/>
	<polygon class="st20" points="147.1,153.9 141.5,152.9 141.5,208.9 147.1,206.5 	"/>
	<linearGradient id="SVGID_15_" gradientUnits="userSpaceOnUse" x1="187.884" y1="160.5713" x2="157.4196" y2="172.8966">
		<stop  offset="0" style="stop-color:#F0F4FF"/>
		<stop  offset="1" style="stop-color:#D5DDEF"/>
	</linearGradient>
	<polygon class="st21" points="188.4,131 147.1,154 147.1,206.5 188.4,188.3 	"/>
	<polygon class="st3" points="70.2,243.4 41.2,255.9 41.2,253.1 70.2,240.4 	"/>
	<polygon class="st20" points="44.3,211.2 41.2,210.8 41.2,253.1 44.3,251.7 	"/>
	<linearGradient id="SVGID_16_" gradientUnits="userSpaceOnUse" x1="75.4185" y1="221.2812" x2="52.6275" y2="225.4673">
		<stop  offset="0" style="stop-color:#F0F4FF"/>
		<stop  offset="1" style="stop-color:#B6C9EF"/>
	</linearGradient>
	<polygon class="st22" points="68.4,197.8 44.3,211.2 44.3,251.7 68.4,241.1 	"/>
	<linearGradient id="SVGID_17_" gradientUnits="userSpaceOnUse" x1="111.2347" y1="305.815" x2="77.5982" y2="308.567">
		<stop  offset="0" style="stop-color:#F0F4FF"/>
		<stop  offset="1" style="stop-color:#B6C9EF"/>
	</linearGradient>
	<polygon class="st23" points="101.3,248.1 85.4,254.3 85.4,366.4 101.3,364.9 	"/>
	<polygon class="st3" points="33.5,259.1 10,269.3 10,266.7 33.5,256.3 	"/>
	<polygon class="st20" points="12.4,228.9 10,228.6 10,266.7 12.4,265.7 	"/>
	<linearGradient id="SVGID_18_" gradientUnits="userSpaceOnUse" x1="37.2048" y1="238.6841" x2="23.7163" y2="241.4748">
		<stop  offset="0" style="stop-color:#F0F4FF"/>
		<stop  offset="1" style="stop-color:#B6C9EF"/>
	</linearGradient>
	<polygon class="st24" points="32.1,217.9 12.4,228.9 12.4,265.7 32.1,257 	"/>
	<polygon class="st3" points="188.4,126.3 188.4,188.3 191.5,186.9 191.5,124.6 	"/>
	<polygon class="st2" points="188.4,126.3 141.5,152.9 147.2,153.9 188.4,131 	"/>
	<polygon class="st20" points="85.4,254.3 80.9,253.8 80.9,369.5 85.4,369.6 	"/>
	<polygon class="st3" points="101.3,368.2 80.9,370 80.9,366.9 101.3,364.9 	"/>
	<polygon class="st3" points="68.4,195.5 68.4,241.1 70.2,240.4 70.2,194.5 	"/>
	<polygon class="st2" points="68.4,195.5 41.2,210.8 44.3,211.2 68.4,197.8 	"/>
	<polygon class="st3" points="103.1,368 101.3,368.2 101.3,245.8 103.1,245.1 	"/>
	<polygon class="st2" points="101.3,245.8 80.9,253.8 85.4,254.3 101.3,248.1 	"/>
	<polygon class="st3" points="32.1,216.2 32.1,257 33.5,256.3 33.5,215.4 	"/>
	<polygon class="st2" points="32.1,216.2 10,228.6 12.4,228.9 32.1,217.9 	"/>
	<polygon class="st3" points="185,456.8 181.9,456.5 181.9,222.4 185,221.3 	"/>
	<polygon class="st2" points="181.9,456.5 181.9,454.7 159.3,452.3 147.4,452.8 	"/>
	<polygon class="st2" points="181.9,222.4 147.4,235.4 159.3,236.8 181.9,228.7 	"/>
	<polygon class="st25" points="302.8,6.3 1.7,204.3 0,204.1 300.2,5.4 	"/>
	<linearGradient id="SVGID_19_" gradientUnits="userSpaceOnUse" x1="485.9083" y1="287.3541" x2="570.248" y2="283.7498">
		<stop  offset="0" style="stop-color:#7CA0E8"/>
		<stop  offset="1" style="stop-color:#C1D3F4"/>
	</linearGradient>
	<polygon class="st26" points="531.4,446.2 470.9,443.2 470.9,144.9 531.4,124.6 	"/>
	<polygon class="st5" points="286.4,35.6 300.2,39.7 300.2,83.5 286.4,79.9 	"/>
	<polygon class="st27" points="300.2,5.4 300.2,8.1 597,104.9 600,103.9 	"/>
</g>
</svg>
